Coordinates
version=1
nRows=10
nColumns=63
inDegrees=yes

Units are S.I. units (second, meters, Newtons, ...)
If the header above contains a line with 'inDegrees', this indicates whether rotational values are in degrees (yes) or radians (no).

endheader
time	pelvis_tilt	pelvis_list	pelvis_rotation	pelvis_tx	pelvis_ty	pelvis_tz	hip_flexion_r	hip_adduction_r	hip_rotation_r	knee_angle_r	knee_angle_r_beta	ankle_angle_r	subtalar_angle_r	mtp_angle_r	hip_flexion_l	hip_adduction_l	hip_rotation_l	knee_angle_l	knee_angle_l_beta	ankle_angle_l	subtalar_angle_l	mtp_angle_l	L5_S1_Flex_Ext	L5_S1_Lat_Bending	L5_S1_axial_rotation	L4_L5_Flex_Ext	L4_L5_Lat_Bending	L4_L5_axial_rotation	L3_L4_Flex_Ext	L3_L4_Lat_Bending	L3_L4_axial_rotation	L2_L3_Flex_Ext	L2_L3_Lat_Bending	L2_L3_axial_rotation	L1_L2_Flex_Ext	L1_L2_Lat_Bending	L1_L2_axial_rotation	L1_T12_Flex_Ext	L1_T12_Lat_Bending	L1_T12_axial_rotation	Abs_r3	Abs_r2	Abs_r1	Abs_t1	Abs_t2	neck_flexion	neck_bending	neck_rotation	arm_flex_r	arm_add_r	arm_rot_r	elbow_flex_r	pro_sup_r	wrist_flex_r	wrist_dev_r	arm_flex_l	arm_add_l	arm_rot_l	elbow_flex_l	pro_sup_l	wrist_flex_l	wrist_dev_l
      0.00000000	     -0.88313654	     -5.23061300	     89.77721573	      0.17071420	      0.94914700	      0.53700380	      2.65408087	     -2.47581669	     -8.76503835	      8.90988119	      0.15550676	     20.69466136	     15.67294314	      0.00000000	      2.70255529	     -0.04211711	    -16.08304946	      9.12571778	      0.15927382	     25.23551889	     10.18851439	      0.00000000	     -0.10421572	     -0.02146190	      0.77196453	     -0.19353902	     -0.02854433	      0.82021231	     -0.17121601	     -0.05218248	      0.82021231	     -0.11910815	     -0.05218248	      0.67546896	     -0.09677472	     -0.04376512	      0.62722118	     -0.05954886	     -0.03324449	      0.57897339	     -0.74440247	     -0.24278136	      4.29343510	      0.00000000	      0.00000000	     21.54098049	      1.32673788	     10.20668952	     24.73465944	    -13.97546108	     65.47003826	     49.74154054	     88.49080111	      5.07914516	     28.55896724	     34.02083089	    -11.05265938	     83.60414036	     51.22121818	     89.44379530	    -29.34673308	     -4.68251946
      0.01785714	     -0.89829341	     -5.34859962	     89.72354855	      0.17036770	      0.94897981	      0.53788585	      2.64499181	     -2.55531248	     -8.43734226	      8.93917501	      0.15601804	     20.23097555	     15.76342468	      0.00000000	      2.90965167	      0.04211510	    -16.00386227	      9.01205023	      0.15728995	     25.45078598	     10.25041337	      0.00000000	     -0.09640580	     -0.01735829	      0.75250947	     -0.17903522	     -0.02308652	      0.79954131	     -0.15838510	     -0.04220494	      0.79954131	     -0.11018219	     -0.04220494	      0.65844579	     -0.08952243	     -0.03539702	      0.61141394	     -0.05508628	     -0.02688798	      0.56438210	     -0.68861702	     -0.19636040	      4.18523192	      0.00000000	      0.00000000	     21.46297379	      1.30339038	     10.21406254	     25.35308419	    -13.94845241	     65.03259905	     49.82576685	     88.45889025	      4.92765734	     28.55250527	     34.28674409	    -11.14975950	     83.54546945	     51.27630371	     89.45644345	    -29.19752439	     -4.81025884
      0.03571429	     -0.95997468	     -5.45239975	     89.10447817	      0.17187987	      0.94879596	      0.53780366	      2.38168312	     -2.18392151	     -2.96855355	      8.17718676	      0.14271883	     18.98970735	      9.59779550	      0.00000000	      2.90880478	      0.05277544	    -16.81780506	      8.81383202	      0.15383039	     25.57569862	     10.82365826	      0.00000000	     -0.08291604	     -0.03381513	      0.91775504	     -0.15398337	     -0.04497412	      0.97511473	     -0.13622276	     -0.08221811	      0.97511473	     -0.09476474	     -0.08221811	      0.80303566	     -0.07699583	     -0.06895581	      0.74567597	     -0.04737822	     -0.05237964	      0.68831628	     -0.59226095	     -0.38252351	      5.10427821	      0.00000000	      0.00000000	     21.72839172	      1.13316665	      9.75695936	     24.24290334	    -14.11110939	     62.21203995	     50.82597244	     88.36574613	      2.57365575	     28.84228749	     34.18605174	    -11.54994317	     81.88760366	     51.93596501	     89.46130357	    -23.62012206	     -4.51832126
      0.05357143	     -0.96727076	     -5.44870997	     89.02431005	      0.17227218	      0.94867009	      0.53791250	      2.02612588	     -1.92386648	      0.76901051	      7.56363906	      0.13201040	     18.09351658	      4.67215070	      0.00000000	      2.93244779	      0.02382820	    -17.26631424	      8.81902687	      0.15392106	     25.73805711	     11.42693724	      0.00000000	     -0.08712378	     -0.03418806	      0.89536857	     -0.16179757	     -0.04547013	      0.95132910	     -0.14313566	     -0.08312486	      0.95132910	     -0.09957377	     -0.08312486	      0.78344750	     -0.08090314	     -0.06971630	      0.72748696	     -0.04978253	     -0.05295731	      0.67152643	     -0.62231645	     -0.38674222	      4.97977136	      0.00000000	      0.00000000	     21.77750341	      1.34794986	     10.29558846	     23.88749313	    -14.26962298	     61.43899253	     51.45334116	     88.37370591	      1.69527866	     27.47829749	     33.81505478	    -12.15710927	     80.35255458	     52.99230877	     89.46749512	    -21.11722568	     -2.84420555
      0.07142857	     -0.99204677	     -5.43966541	     88.96272653	      0.17226314	      0.94850385	      0.53826043	      1.97555113	     -1.98357705	      0.74734922	      7.51850224	      0.13122262	     18.31821233	      4.84464276	      0.00000000	      2.95226729	      0.11099098	    -16.82024006	      8.77007976	      0.15306677	     25.68060658	     10.76249016	      0.00000000	     -0.09406061	     -0.03726577	      0.88791632	     -0.17467996	     -0.04956348	      0.94341109	     -0.15453217	     -0.09060800	      0.94341109	     -0.10750187	     -0.09060800	      0.77692678	     -0.08734468	     -0.07599236	      0.72143201	     -0.05374623	     -0.05772468	      0.66593724	     -0.67186552	     -0.42155787	      4.93832418	      0.00000000	      0.00000000	     21.88162923	      1.39182873	     10.25268485	     23.51671791	    -14.69533802	     61.23793221	     52.29463847	     88.39110930	      0.81373334	     25.55714679	     33.65514146	    -12.52556156	     79.73313432	     53.62717339	     89.44994101	    -20.18390085	     -2.00701773
      0.08928571	     -1.03809084	     -5.53030660	     88.57917664	      0.17259088	      0.94818407	      0.53820053	      2.11205162	     -2.03656229	      1.33360613	      7.53022553	      0.13142723	     18.65854681	      4.59166916	      0.00000000	      2.97280173	      0.15331528	    -17.55662940	      8.68786941	      0.15163193	     25.68977963	     11.22884530	      0.00000000	     -0.07605545	     -0.03796584	      0.92926899	     -0.14124258	     -0.05049457	      0.98734831	     -0.12495150	     -0.09231015	      0.98734831	     -0.08692378	     -0.09231015	      0.81311037	     -0.07062509	     -0.07741995	      0.75503106	     -0.04345809	     -0.05880909	      0.69695175	     -0.54325650	     -0.42947720	      5.16831536	      0.00000000	      0.00000000	     21.81082268	      1.40809964	     10.52942432	     22.78793605	    -15.04179519	     60.55335555	     53.05976617	     88.55110127	      1.06334806	     23.65785270	     32.89734225	    -12.94408615	     77.79730682	     54.53885067	     89.43456250	    -17.59729367	     -0.08014643
      0.10714286	     -0.92628851	     -5.50595332	     88.44942823	      0.17241625	      0.94791373	      0.53833590	      2.17136330	     -1.94762484	      1.20411598	      7.63434881	      0.13324452	     18.98472648	      4.72109474	      0.00000000	      2.93035440	      0.05733562	    -17.75644235	      8.67624852	      0.15142910	     25.79053582	     11.30679240	      0.00000000	     -0.08018963	     -0.01820064	      0.93001696	     -0.14892016	     -0.02420685	      0.98814302	     -0.13174354	     -0.04425303	      0.98814302	     -0.09164873	     -0.04425303	      0.81376484	     -0.07446409	     -0.03711474	      0.75563878	     -0.04582035	     -0.02819279	      0.69751272	     -0.57278651	     -0.20588927	      5.17247534	      0.00000000	      0.00000000	     21.91782039	      1.30439213	     10.61636755	     22.96698198	    -15.48949766	     61.52432294	     53.68035404	     88.76431800	      2.70547558	     22.58123470	     32.50440623	    -13.17977036	     76.78587047	     55.24479367	     89.41919011	    -16.14307223	      1.81609183
      0.12500000	     -0.98605087	     -5.49841307	     88.40646466	      0.17216827	      0.94752718	      0.53814907	      2.24850574	     -2.09724980	      0.17939549	      7.74654076	      0.13520264	     19.77564657	      6.07552744	      0.00000000	      2.90189862	      0.16668908	    -17.60711772	      8.68943460	      0.15165924	     25.78233117	     10.94405637	      0.00000000	     -0.07715191	     -0.01707446	      0.87739301	     -0.14327881	     -0.02270904	      0.93223008	     -0.12675287	     -0.04151485	      0.93223008	     -0.08817692	     -0.04151485	      0.76771889	     -0.07164326	     -0.03481825	      0.71288182	     -0.04408460	     -0.02644835	      0.65804476	     -0.55108836	     -0.19314976	      4.87979673	      0.00000000	      0.00000000	     21.86821739	      1.46141561	     11.27744692	     23.37916701	    -15.47987572	     62.74302536	     53.95791852	     89.01068051	      5.78893909	     22.97855171	     31.66624013	    -13.63410928	     74.45788413	     56.32925403	     89.41449913	    -12.55043219	      5.03665846
      0.14285714	     -0.87176096	     -5.43277572	     88.21399849	      0.17189487	      0.94729181	      0.53819159	      2.33878125	     -2.03212774	     -0.09466920	      7.91859044	      0.13820548	     20.36176455	      6.66461833	      0.00000000	      2.80105003	      0.10196294	    -17.54979003	      8.69774663	      0.15180432	     25.83190801	     10.51345930	      0.00000000	     -0.08608556	      0.00603998	      0.90193667	     -0.15986949	      0.00803318	      0.95830771	     -0.14142996	      0.01468561	      0.95830771	     -0.09838718	      0.01468561	      0.78919459	     -0.07993905	      0.01231673	      0.73282355	     -0.04918929	      0.00935593	      0.67645250	     -0.61490053	      0.06832548	      5.01630119	      0.00000000	      0.00000000	     21.87568428	      1.19100082	     11.21584571	     24.26738378	    -15.55833057	     64.87625005	     54.09684618	     89.16655990	      9.16018190	     24.21032088	     31.58061767	    -13.59091477	     74.23021147	     56.52474745	     89.38297045	    -11.82449184	      6.17360684
      0.16071429	     -0.82342229	     -5.47129038	     88.25611891	      0.17107353	      0.94675594	      0.53779929	      2.48811118	     -2.10419947	     -1.22757876	      8.12978238	      0.14189147	     21.07001796	      8.21371457	      0.00000000	      2.78326299	      0.18121654	    -16.74498196	      8.62571837	      0.15054719	     25.80380736	      9.42711793	      0.00000000	     -0.08525501	      0.02926222	      0.87462715	     -0.15832707	      0.03891875	      0.92929135	     -0.14006545	      0.07114815	      0.92929135	     -0.09743795	      0.07114815	      0.76529876	     -0.07916780	      0.05967151	      0.71063456	     -0.04871471	      0.04532717	      0.65597036	     -0.60896799	      0.33102004	      4.86441382	      0.00000000	      0.00000000	     22.07642154	      1.20772795	     12.07549112	     24.53796879	    -15.19847853	     64.94462609	     53.98165467	     89.25096604	     15.01584607	     27.19944288	     30.90498472	    -13.60098058	     72.47741716	     57.12779940	     89.38302589	     -9.32119230	      8.61194507
